<svg width="25" height="24" viewBox="0 0 25 24" fill="none" xmlns="http://www.w3.org/2000/svg">
<path d="M21.1927 16.62C21.1927 17.47 20.5027 18.16 19.6527 18.16H6.29266C5.44266 18.16 4.75266 17.47 4.75266 16.62C4.75266 15.77 5.44266 15.08 6.29266 15.08H6.80264V9.94002C6.80264 6.54002 9.56266 3.77002 12.9727 3.77002C14.6727 3.77002 16.2126 4.46002 17.3326 5.58002C18.4526 6.69002 19.1427 8.23002 19.1427 9.94002V15.08H19.6527C20.5027 15.08 21.1927 15.77 21.1927 16.62Z" stroke="white" stroke-width="1.5" stroke-linecap="round" stroke-linejoin="round"/>
<path d="M12.9727 3.78V2.75" stroke="white" stroke-width="1.5" stroke-linecap="round" stroke-linejoin="round"/>
<path d="M16.0508 18.17C16.0508 19.88 14.6712 21.25 12.9717 21.25C11.2722 21.25 9.89267 19.87 9.89267 18.17H16.0508Z" stroke="white" stroke-width="1.5" stroke-linecap="round" stroke-linejoin="round"/>
</svg>
