<svg width="25" height="25" viewBox="0 0 25 25" fill="none" xmlns="http://www.w3.org/2000/svg">
<g clip-path="url(#clip0_2001_31)">
<path d="M12.1247 0.980591C15.4384 0.980591 18.1247 3.66688 18.1247 6.98059C18.1247 10.0411 15.8332 12.5664 12.8724 12.9345C12.8742 12.9488 12.8747 12.9647 12.8747 12.9806V20.4806H20.3747C21.5729 20.4806 22.5524 21.4173 22.6209 22.5984L22.6247 22.7306C22.6247 23.9732 21.6173 24.9806 20.3747 24.9806H3.87468C2.63204 24.9806 1.62468 23.9732 1.62468 22.7306C1.62468 21.4879 2.63204 20.4806 3.87468 20.4806H11.3747V12.9806L11.377 12.9345C8.41613 12.5664 6.12468 10.0411 6.12468 6.98059C6.12468 3.66688 8.81097 0.980591 12.1247 0.980591ZM20.3747 21.9806H3.87468C3.46047 21.9806 3.12468 22.3164 3.12468 22.7306C3.12468 23.1448 3.46047 23.4806 3.87468 23.4806H20.3747C20.7889 23.4806 21.1247 23.1448 21.1247 22.7306C21.1247 22.3164 20.7889 21.9806 20.3747 21.9806ZM12.1247 2.48059C9.6394 2.48059 7.62468 4.49531 7.62468 6.98059C7.62468 9.46587 9.6394 11.4806 12.1247 11.4806C14.61 11.4806 16.6247 9.46587 16.6247 6.98059C16.6247 4.49531 14.61 2.48059 12.1247 2.48059Z" fill="#282828"/>
</g>
<defs>
<clipPath id="clip0_2001_31">
<rect width="24" height="24" fill="white" transform="translate(0.12468 0.980591)"/>
</clipPath>
</defs>
</svg>
