<svg width="25" height="25" viewBox="0 0 25 25" fill="none" xmlns="http://www.w3.org/2000/svg">
<path d="M6.13855 9.6461C6.06801 9.15979 5.9172 8.58091 5.73678 7.88833L5.19602 5.81232L5.18649 5.77573C5.89672 5.09118 6.70793 4.5109 7.59553 4.05948L9.22777 5.29745C9.78732 5.72187 10.2578 6.0787 10.6743 6.32496C10.8924 6.4539 11.112 6.56282 11.3411 6.64073V9.66265C11.218 9.72 11.1 9.79208 10.9897 9.87874L9.05734 11.3972C8.98525 11.4539 8.91838 11.5152 8.8569 11.5806L6.17874 10.4209C6.19494 10.1677 6.17697 9.91102 6.13855 9.6461Z" fill="#008F8F"/>
<path d="M4.16976 11.1833C3.87477 11.4374 3.45944 11.7209 2.83495 12.145L2.13101 12.6232C2.2025 10.5858 2.88274 8.70355 3.9952 7.15302L4.27485 8.22661C4.46832 8.96936 4.59693 9.46738 4.65409 9.86143C4.7086 10.2372 4.68529 10.4438 4.62395 10.6101C4.56311 10.775 4.44939 10.9423 4.16976 11.1833Z" fill="#008F8F"/>
<path d="M5.42576 17.8657C6.12034 17.8657 6.70589 17.8657 7.18425 17.9219C7.43653 17.9515 7.67748 17.9984 7.90728 18.0759L9.32297 16.2235C9.27139 16.1235 9.22849 16.0179 9.19532 15.9074L8.43636 13.381C8.39876 13.2558 8.37494 13.1288 8.36427 13.0019L5.6377 11.8212C5.4954 11.9999 5.33067 12.163 5.14884 12.3197C4.7808 12.6368 4.29304 12.968 3.71254 13.3623L2.2211 14.3752C2.39571 15.628 2.80216 16.8065 3.39565 17.8657H5.42576Z" fill="#008F8F"/>
<path d="M11.9165 11.0581C11.9706 11.0157 12.0316 10.9964 12.0911 10.9964C12.1506 10.9964 12.2116 11.0157 12.2657 11.0581L14.198 12.5766C14.2495 12.6171 14.2887 12.6745 14.3092 12.7426C14.329 12.8086 14.3299 12.8805 14.3092 12.9494L13.5502 15.4759C13.5294 15.5454 13.4901 15.6006 13.4425 15.6391C13.3899 15.6816 13.328 15.7036 13.2644 15.7036H10.9178C10.8542 15.7036 10.7923 15.6816 10.7397 15.6391C10.6921 15.6006 10.6528 15.5454 10.6319 15.4759L9.87296 12.9494C9.85226 12.8805 9.85313 12.8086 9.87295 12.7426C9.89343 12.6745 9.93266 12.6171 9.98419 12.5766L11.9165 11.0581Z" fill="#008F8F"/>
<path d="M13.5005 6.35624C13.9222 6.11926 14.4001 5.77294 14.9683 5.36109L16.7091 4.09964C17.5738 4.5491 18.3646 5.12144 19.0584 5.79356L18.5127 7.88842C18.3323 8.581 18.1815 9.15987 18.111 9.64618C18.0728 9.90968 18.0548 10.1651 18.0705 10.4169L15.3282 11.5838C15.2659 11.5172 15.198 11.4548 15.1248 11.3972L13.1925 9.87872C13.0822 9.79206 12.9642 9.71998 12.8411 9.66263V6.65274C13.0668 6.58016 13.2842 6.47783 13.5005 6.35624Z" fill="#008F8F"/>
<path d="M11.4377 5.03375C11.1045 4.83674 10.7028 4.53352 10.1003 4.07656L9.21774 3.4072C10.1342 3.12975 11.1063 2.98059 12.1132 2.98059C13.1458 2.98059 14.1418 3.13745 15.0787 3.42867L14.1227 4.12146C13.5107 4.56494 13.1028 4.85911 12.7656 5.04862C12.4451 5.22873 12.2586 5.27252 12.0994 5.27075C11.9402 5.26899 11.7545 5.22102 11.4377 5.03375Z" fill="#008F8F"/>
<path d="M19.1007 12.3198C19.4687 12.6369 19.9565 12.9681 20.537 13.3624L22.0073 14.361C21.8338 15.6191 21.4265 16.8025 20.8308 17.8657H18.9726C18.278 17.8657 17.6925 17.8657 17.2141 17.9219C16.9513 17.9527 16.7008 18.0023 16.4624 18.0858L14.8728 16.1965C14.9183 16.1046 14.9566 16.008 14.9868 15.9074L15.7458 13.381C15.783 13.2571 15.8067 13.1313 15.8175 13.0057L18.6091 11.8179C18.752 11.998 18.9177 12.1621 19.1007 12.3198Z" fill="#008F8F"/>
<path d="M14.9331 19.6071C14.7314 20.0533 14.5471 20.622 14.3268 21.3019L13.8305 22.8334C13.2726 22.9302 12.6988 22.9806 12.1132 22.9806C11.591 22.9806 11.0781 22.9405 10.5775 22.8631L10.0716 21.3019C9.85128 20.622 9.667 20.0533 9.46522 19.6071C9.36219 19.3793 9.2476 19.1667 9.10965 18.9729L10.5 17.1537C10.6345 17.1864 10.7745 17.2036 10.9178 17.2036H13.2644C13.4181 17.2036 13.5681 17.1837 13.7116 17.1463L15.2704 18.9989C15.1406 19.1856 15.0316 19.3894 14.9331 19.6071Z" fill="#008F8F"/>
<path d="M8.65744 21.8038C8.42099 21.0741 8.26166 20.5859 8.09851 20.2252C7.94274 19.8807 7.81442 19.7259 7.68013 19.6263C7.5476 19.5281 7.36943 19.4539 7.00931 19.4116C6.62872 19.3669 6.1318 19.3657 5.38287 19.3657H4.42566C5.58362 20.7616 7.11364 21.8369 8.8634 22.4394L8.65744 21.8038Z" fill="#008F8F"/>
<path d="M17.3891 19.4116C17.7697 19.3669 18.2666 19.3657 19.0155 19.3657H19.8008C18.6859 20.7096 17.2261 21.7565 15.5574 22.3702L15.741 21.8038C15.9774 21.0741 16.1367 20.5859 16.2999 20.2252C16.4557 19.8807 16.584 19.7259 16.7183 19.6263C16.8508 19.5281 17.029 19.4539 17.3891 19.4116Z" fill="#008F8F"/>
<path d="M19.5954 9.86153C19.6526 9.46748 19.7812 8.96946 19.9747 8.22671L20.2482 7.1767C21.3477 8.71864 22.0208 10.5864 22.0949 12.6072L21.4146 12.1451C20.7901 11.721 20.3748 11.4375 20.0798 11.1834C19.8001 10.9424 19.6864 10.7751 19.6256 10.6101C19.5642 10.4439 19.5409 10.2373 19.5954 9.86153Z" fill="#008F8F"/>
</svg>
